<svg width="52" height="45" viewBox="0 0 52 45" fill="none" xmlns="http://www.w3.org/2000/svg">
<g id="CG">
<path d="M22.8955 1.10645L21.665 10.3789C21.2402 10.2617 20.8154 10.1812 20.3906 10.1372C19.9658 10.0933 19.541 10.0713 19.1162 10.0713C18.0322 10.0713 16.9995 10.2178 16.0181 10.5107C15.0366 10.7891 14.165 11.2212 13.4033 11.8071C12.6562 12.3931 12.0557 13.1255 11.6016 14.0044C11.1621 14.8833 10.9424 15.916 10.9424 17.1025C10.9424 17.8643 11.0596 18.5234 11.2939 19.0801C11.543 19.6367 11.8872 20.0981 12.3267 20.4644C12.7661 20.8306 13.2861 21.1016 13.8867 21.2773C14.4873 21.4531 15.1465 21.541 15.8643 21.541C16.4062 21.541 16.9702 21.4824 17.5562 21.3652C18.1421 21.248 18.7207 21.0942 19.292 20.9038C19.8633 20.7134 20.4199 20.4937 20.9619 20.2446C21.5039 19.9956 22.002 19.7393 22.4561 19.4756L21.5771 29.8027C21.0059 30.0957 20.3833 30.3594 19.7095 30.5938C19.0503 30.8135 18.3691 31.0112 17.666 31.187C16.9629 31.3481 16.2598 31.4727 15.5566 31.5605C14.8535 31.6484 14.1797 31.6924 13.5352 31.6924C11.6748 31.6924 9.93896 31.3481 8.32764 30.6597C6.71631 29.9712 5.31738 29.0264 4.13086 27.8252C2.94434 26.624 2.00684 25.2104 1.31836 23.5845C0.644531 21.9438 0.307617 20.1787 0.307617 18.2891C0.307617 15.7842 0.666504 13.4258 1.38428 11.2139C2.10205 8.9873 3.15674 7.03906 4.54834 5.36914C5.93994 3.69922 7.66113 2.38086 9.71191 1.41406C11.7773 0.447266 14.1504 -0.0361328 16.8311 -0.0361328C17.8418 -0.0361328 18.8745 0.0444336 19.9292 0.205566C20.9985 0.366699 21.9873 0.666992 22.8955 1.10645ZM50.8008 27.5176C50.1123 28.3818 49.2627 29.1362 48.252 29.7808C47.2412 30.4253 46.1572 30.96 45 31.3848C43.8428 31.8096 42.6562 32.1245 41.4404 32.3296C40.2246 32.5493 39.0674 32.6592 37.9688 32.6592C35.8447 32.6592 33.8892 32.2783 32.1021 31.5166C30.3149 30.7549 28.7695 29.7075 27.4658 28.3745C26.1768 27.0269 25.166 25.4448 24.4336 23.6284C23.7012 21.812 23.335 19.8564 23.335 17.7617C23.335 16.165 23.5181 14.605 23.8843 13.0815C24.2505 11.5435 24.7705 10.1006 25.4443 8.75293C26.1328 7.39062 26.9678 6.14551 27.9492 5.01758C28.9307 3.875 30.0439 2.89355 31.2891 2.07324C32.5342 1.25293 33.8965 0.615723 35.376 0.161621C36.8555 -0.29248 38.4375 -0.519531 40.1221 -0.519531C40.752 -0.519531 41.4258 -0.490234 42.1436 -0.431641C42.8613 -0.387695 43.5718 -0.299805 44.2749 -0.167969C44.9927 -0.0507813 45.6885 0.117676 46.3623 0.337402C47.0361 0.557129 47.6514 0.828125 48.208 1.15039L47.5928 9.54395C46.7725 9.23633 45.9229 9.03125 45.0439 8.92871C44.1797 8.81152 43.3301 8.75293 42.4951 8.75293C41.3232 8.75293 40.2246 8.93604 39.1992 9.30225C38.1885 9.65381 37.3022 10.1665 36.5405 10.8403C35.7935 11.5142 35.2002 12.3345 34.7607 13.3013C34.3213 14.2681 34.1016 15.3594 34.1016 16.5752C34.1016 17.3369 34.2041 18.0767 34.4092 18.7944C34.6143 19.4976 34.9219 20.1274 35.332 20.6841C35.7568 21.2261 36.2769 21.6655 36.8921 22.0024C37.522 22.3394 38.2471 22.5078 39.0674 22.5078C39.624 22.5078 40.1953 22.4346 40.7812 22.2881C41.3818 22.1416 41.8945 21.8926 42.3193 21.541L42.4072 19.8271L37.1338 19.7393L37.3975 13.1475C39.5801 13.0742 41.7627 13.0156 43.9453 12.9717C46.1279 12.9131 48.3252 12.8398 50.5371 12.752L50.8008 27.5176Z" fill="white"/>
<path d="M22.8955 1.10645L23.8868 1.23799L23.9819 0.521221L23.3311 0.206286L22.8955 1.10645ZM21.665 10.3789L21.3991 11.3429L22.5054 11.6481L22.6563 10.5105L21.665 10.3789ZM16.0181 10.5107L16.2909 11.4729L16.3041 11.469L16.0181 10.5107ZM13.4033 11.8071L12.7936 11.0145L12.7862 11.0203L13.4033 11.8071ZM11.6016 14.0044L10.7131 13.5453L10.7071 13.5572L11.6016 14.0044ZM11.2939 19.0801L10.3723 19.4681L10.3766 19.4783L10.3811 19.4884L11.2939 19.0801ZM22.4561 19.4756L23.4525 19.5604L23.6154 17.6461L21.9539 18.6108L22.4561 19.4756ZM21.5771 29.8027L22.0335 30.6926L22.5266 30.4397L22.5735 29.8875L21.5771 29.8027ZM19.7095 30.5938L20.0257 31.5425L20.038 31.5382L19.7095 30.5938ZM17.666 31.187L17.8894 32.1617L17.899 32.1595L17.9086 32.1572L17.666 31.187ZM1.31836 23.5845L0.393285 23.9644L0.397507 23.9744L1.31836 23.5845ZM1.38428 11.2139L2.33545 11.5225L2.33605 11.5207L1.38428 11.2139ZM9.71191 1.41406L9.28797 0.508369L9.28549 0.509537L9.71191 1.41406ZM19.9292 0.205566L19.7782 1.1941L19.7802 1.1944L19.9292 0.205566ZM21.9042 0.974897L20.6737 10.2474L22.6563 10.5105L23.8868 1.23799L21.9042 0.974897ZM21.931 9.41491C21.4545 9.28346 20.9752 9.19234 20.4935 9.14252L20.2877 11.1319C20.6557 11.17 21.026 11.24 21.3991 11.3429L21.931 9.41491ZM20.4935 9.14252C20.0347 9.09505 19.5756 9.07129 19.1162 9.07129V11.0713C19.5065 11.0713 19.8969 11.0915 20.2877 11.1319L20.4935 9.14252ZM19.1162 9.07129C17.941 9.07129 16.8116 9.23027 15.732 9.55252L16.3041 11.469C17.1875 11.2053 18.1234 11.0713 19.1162 11.0713V9.07129ZM15.7452 9.54868C14.6494 9.85945 13.6619 10.3466 12.7936 11.0145L14.013 12.5998C14.6681 12.0958 15.4239 11.7187 16.2909 11.4728L15.7452 9.54868ZM12.7862 11.0203C11.9215 11.6985 11.2303 12.5445 10.7131 13.5454L12.49 14.4634C12.8811 13.7065 13.391 13.0876 14.0205 12.594L12.7862 11.0203ZM10.7071 13.5572C10.1853 14.6008 9.94238 15.7926 9.94238 17.1025H11.9424C11.9424 16.0394 12.1389 15.1658 12.496 14.4516L10.7071 13.5572ZM9.94238 17.1025C9.94238 17.964 10.0746 18.7611 10.3723 19.4681L12.2156 18.692C12.0445 18.2858 11.9424 17.7645 11.9424 17.1025H9.94238ZM10.3811 19.4884C10.6882 20.1749 11.1222 20.7624 11.6865 21.2326L12.9668 19.6961C12.6522 19.4339 12.3977 19.0986 12.2068 18.6717L10.3811 19.4884ZM11.6865 21.2326C12.2408 21.6945 12.8861 22.0264 13.6058 22.2371L14.1676 20.3176C13.6862 20.1767 13.2914 19.9666 12.9668 19.6961L11.6865 21.2326ZM13.6058 22.2371C14.3099 22.4432 15.0651 22.541 15.8643 22.541V20.541C15.2279 20.541 14.6647 20.4631 14.1676 20.3176L13.6058 22.2371ZM15.8643 22.541C16.4784 22.541 17.1083 22.4746 17.7523 22.3458L17.36 20.3847C16.8322 20.4902 16.3341 20.541 15.8643 20.541V22.541ZM17.7523 22.3458C18.3792 22.2204 18.9979 22.0559 19.6082 21.8525L18.9758 19.9551C18.4435 20.1325 17.905 20.2757 17.36 20.3847L17.7523 22.3458ZM19.6082 21.8525C20.2136 21.6507 20.8041 21.4176 21.3794 21.1533L20.5444 19.336C20.0357 19.5697 19.5129 19.7761 18.9758 19.9551L19.6082 21.8525ZM21.3794 21.1533C21.9465 20.8928 22.4732 20.622 22.9582 20.3404L21.9539 18.6108C21.5307 18.8565 21.0613 19.0985 20.5444 19.336L21.3794 21.1533ZM21.4597 19.3908L20.5807 29.7179L22.5735 29.8875L23.4525 19.5604L21.4597 19.3908ZM21.1208 28.9129C20.5951 29.1825 20.0157 29.4285 19.381 29.6493L20.038 31.5382C20.7509 31.2903 21.4166 31.0089 22.0335 30.6926L21.1208 28.9129ZM19.3932 29.6451C18.7594 29.8564 18.1028 30.047 17.4235 30.2169L17.9086 32.1572C18.6354 31.9754 19.3412 31.7706 20.0257 31.5424L19.3932 29.6451ZM17.4426 30.2123C16.7717 30.366 16.1017 30.4846 15.4326 30.5683L15.6807 32.5528C16.4178 32.4607 17.1541 32.3303 17.8894 32.1617L17.4426 30.2123ZM15.4326 30.5683C14.7666 30.6515 14.1344 30.6924 13.5352 30.6924V32.6924C14.225 32.6924 14.9404 32.6454 15.6807 32.5528L15.4326 30.5683ZM13.5352 30.6924C11.8014 30.6924 10.2001 30.3723 8.72055 29.7401L7.93473 31.5792C9.6778 32.324 11.5482 32.6924 13.5352 32.6924V30.6924ZM8.72055 29.7401C7.22385 29.1006 5.93425 28.2279 4.84229 27.1224L3.41943 28.528C4.70051 29.8249 6.20877 30.8418 7.93473 31.5792L8.72055 29.7401ZM4.84229 27.1224C3.7488 26.0154 2.88061 24.7094 2.23921 23.1946L0.397507 23.9744C1.13306 25.7115 2.13987 27.2326 3.41943 28.528L4.84229 27.1224ZM2.24338 23.2046C1.62224 21.6922 1.30762 20.057 1.30762 18.2891H-0.692383C-0.692383 20.3004 -0.333175 22.1955 0.39334 23.9644L2.24338 23.2046ZM1.30762 18.2891C1.30762 15.8809 1.65243 13.6273 2.33545 11.5225L0.433104 10.9052C-0.319422 13.2242 -0.692383 15.6874 -0.692383 18.2891H1.30762ZM2.33605 11.5207C3.01756 9.40661 4.01299 7.57361 5.31656 6.00933L3.78012 4.72896C2.30049 6.50451 1.18654 8.568 0.43251 10.907L2.33605 11.5207ZM5.31656 6.00933C6.61082 4.45621 8.21357 3.22597 10.1383 2.31859L9.28549 0.509537C7.10869 1.53574 5.26906 2.94223 3.78012 4.72896L5.31656 6.00933ZM10.1359 2.31975C12.0473 1.42504 14.2714 0.963867 16.8311 0.963867V-1.03613C14.0294 -1.03613 11.5074 -0.530508 9.28797 0.508372L10.1359 2.31975ZM16.8311 0.963867C17.7885 0.963867 18.7707 1.04018 19.7782 1.1941L20.0802 -0.782963C18.9783 -0.951312 17.8951 -1.03613 16.8311 -1.03613V0.963867ZM19.7802 1.1944C20.7572 1.34163 21.6485 1.61399 22.4599 2.0066L23.3311 0.206286C22.3261 -0.280002 21.2398 -0.608229 20.0782 -0.78327L19.7802 1.1944ZM50.8008 27.5176L51.5829 28.1407L51.807 27.8593L51.8006 27.4997L50.8008 27.5176ZM41.4404 32.3296L41.2741 31.3435L41.2626 31.3455L41.4404 32.3296ZM27.4658 28.3745L26.7431 29.0658L26.7509 29.0737L27.4658 28.3745ZM24.4336 23.6284L23.5062 24.0024L24.4336 23.6284ZM23.8843 13.0815L24.8566 13.3153L24.8571 13.3132L23.8843 13.0815ZM25.4443 8.75293L24.5518 8.30188L24.5499 8.30572L25.4443 8.75293ZM27.9492 5.01758L28.7036 5.67401L28.7078 5.66917L27.9492 5.01758ZM42.1436 -0.431641L42.0622 0.565044L42.0723 0.56587L42.0824 0.56649L42.1436 -0.431641ZM44.2749 -0.167969L44.0906 0.814903L44.1022 0.81707L44.1138 0.818964L44.2749 -0.167969ZM48.208 1.15039L49.2053 1.22349L49.2511 0.598799L48.709 0.284964L48.208 1.15039ZM47.5928 9.54395L47.2416 10.4803L48.4924 10.9493L48.5901 9.61705L47.5928 9.54395ZM45.0439 8.92871L44.9096 9.91964L44.9188 9.92089L44.9281 9.92197L45.0439 8.92871ZM39.1992 9.30225L39.5278 10.2468L39.5356 10.244L39.1992 9.30225ZM36.5405 10.8403L35.8779 10.0913L35.8708 10.0978L36.5405 10.8403ZM34.4092 18.7944L33.4476 19.0692L33.4492 19.0744L34.4092 18.7944ZM35.332 20.6841L34.527 21.2773L34.5358 21.2893L34.545 21.301L35.332 20.6841ZM36.8921 22.0024L36.4118 22.8796L36.4204 22.8842L36.8921 22.0024ZM40.7812 22.2881L40.5443 21.3165L40.5387 21.3179L40.7812 22.2881ZM42.3193 21.541L42.9569 22.3114L43.2955 22.0312L43.318 21.5922L42.3193 21.541ZM42.4072 19.8271L43.4059 19.8784L43.4589 18.8445L42.4239 18.8273L42.4072 19.8271ZM37.1338 19.7393L36.1346 19.6993L36.0937 20.7221L37.1171 20.7391L37.1338 19.7393ZM37.3975 13.1475L37.3639 12.148L36.4354 12.1792L36.3983 13.1075L37.3975 13.1475ZM43.9453 12.9717L43.9654 13.9715L43.9721 13.9713L43.9453 12.9717ZM50.5371 12.752L51.5369 12.7341L51.5187 11.7122L50.4974 11.7527L50.5371 12.752ZM50.0186 26.8945C49.4045 27.6654 48.6398 28.3474 47.7143 28.9376L48.7896 30.6239C49.8856 29.9251 50.8201 29.0983 51.5829 28.1407L50.0186 26.8945ZM47.7143 28.9376C46.766 29.5423 45.7469 30.0453 44.6554 30.446L45.3446 32.3235C46.5675 31.8746 47.7165 31.3083 48.7896 30.6239L47.7143 28.9376ZM44.6554 30.446C43.556 30.8496 42.4292 31.1487 41.2741 31.3435L41.6068 33.3157C42.8833 33.1003 44.1295 32.7696 45.3446 32.3235L44.6554 30.446ZM41.2626 31.3455C40.0983 31.5559 39.0009 31.6592 37.9688 31.6592V33.6592C39.1339 33.6592 40.3509 33.5427 41.6183 33.3136L41.2626 31.3455ZM37.9688 31.6592C35.9668 31.6592 34.1461 31.3008 32.4941 30.5967L31.71 32.4365C33.6322 33.2558 35.7226 33.6592 37.9688 33.6592V31.6592ZM32.4941 30.5967C30.823 29.8844 29.3886 28.9103 28.1807 27.6753L26.7509 29.0737C28.1505 30.5048 29.8069 31.6254 31.71 32.4365L32.4941 30.5967ZM28.1885 27.6833C26.9916 26.432 26.0484 24.9591 25.361 23.2544L23.5062 24.0024C24.2837 25.9306 25.362 27.6217 26.7432 29.0657L28.1885 27.6833ZM25.361 23.2544C24.6798 21.565 24.335 19.7373 24.335 17.7617H22.335C22.335 19.9756 22.7225 22.059 23.5062 24.0024L25.361 23.2544ZM24.335 17.7617C24.335 16.2423 24.5091 14.7607 24.8566 13.3153L22.912 12.8478C22.527 14.4493 22.335 16.0878 22.335 17.7617H24.335ZM24.8571 13.3132C25.2064 11.846 25.7009 10.4759 26.3388 9.20014L24.5499 8.30572C23.8401 9.72529 23.2946 11.2409 22.9115 12.8499L24.8571 13.3132ZM26.3368 9.20398C26.9887 7.91403 27.7777 6.73815 28.7036 5.674L27.1948 4.36116C26.1579 5.55286 25.2769 6.86722 24.5518 8.30188L26.3368 9.20398ZM28.7078 5.66917C29.6293 4.59642 30.6726 3.67692 31.8392 2.9083L30.7389 1.23818C29.4153 2.11019 28.2321 3.15358 27.1906 4.36599L28.7078 5.66917ZM31.8392 2.9083C33.002 2.14226 34.2773 1.54487 35.6694 1.1176L35.0826 -0.794362C33.5156 -0.313428 32.0664 0.363602 30.7389 1.23818L31.8392 2.9083ZM35.6694 1.1176C37.0458 0.695145 38.5282 0.480469 40.1221 0.480469V-1.51953C38.3468 -1.51953 36.6651 -1.28011 35.0826 -0.794362L35.6694 1.1176ZM40.1221 0.480469C40.7213 0.480469 41.3677 0.508354 42.0622 0.565044L42.2249 -1.42833C41.4838 -1.48882 40.7826 -1.51953 40.1221 -1.51953V0.480469ZM42.0824 0.56649C42.7591 0.607918 43.4284 0.690739 44.0906 0.814903L44.4592 -1.15084C43.7151 -1.29035 42.9636 -1.38331 42.2047 -1.42977L42.0824 0.56649ZM44.1138 0.818964C44.7824 0.928125 45.4283 1.08467 46.0523 1.28813L46.6723 -0.613328C45.9486 -0.84932 45.203 -1.02969 44.436 -1.1549L44.1138 0.818964ZM46.0523 1.28813C46.6663 1.48835 47.2166 1.73193 47.707 2.01582L48.709 0.284964C48.0861 -0.0756784 47.406 -0.374094 46.6723 -0.613328L46.0523 1.28813ZM47.2107 1.07729L46.5954 9.47084L48.5901 9.61705L49.2053 1.22349L47.2107 1.07729ZM47.9439 8.60762C47.047 8.27128 46.1184 8.04728 45.1598 7.93545L44.9281 9.92197C45.7274 10.0152 46.4979 10.2014 47.2416 10.4803L47.9439 8.60762ZM45.1783 7.93778C44.2715 7.81482 43.377 7.75293 42.4951 7.75293V9.75293C43.2832 9.75293 44.0879 9.80823 44.9096 9.91964L45.1783 7.93778ZM42.4951 7.75293C41.2174 7.75293 40.0042 7.9529 38.8629 8.3605L39.5356 10.244C40.445 9.91917 41.4291 9.75293 42.4951 9.75293V7.75293ZM38.8707 8.35775C37.7435 8.74983 36.7423 9.32674 35.878 10.0913L37.2031 11.5893C37.8622 11.0063 38.6335 10.5578 39.5277 10.2467L38.8707 8.35775ZM35.8708 10.0978C35.0162 10.8686 34.3434 11.8028 33.8504 12.8875L35.6711 13.7151C36.057 12.8661 36.5707 12.1597 37.2103 11.5829L35.8708 10.0978ZM33.8504 12.8875C33.3439 14.0018 33.1016 15.2373 33.1016 16.5752H35.1016C35.1016 15.4815 35.2987 14.5344 35.6711 13.7151L33.8504 12.8875ZM33.1016 16.5752C33.1016 17.4279 33.2165 18.2602 33.4477 19.0692L35.3707 18.5197C35.1917 17.8931 35.1016 17.2459 35.1016 16.5752H33.1016ZM33.4492 19.0744C33.6852 19.8835 34.0431 20.6207 34.527 21.2773L36.1371 20.0909C35.8006 19.6342 35.5434 19.1116 35.3692 18.5144L33.4492 19.0744ZM34.545 21.301C35.0549 21.9516 35.68 22.4788 36.4118 22.8795L37.3724 21.1253C36.8737 20.8523 36.4587 20.5006 36.1191 20.0672L34.545 21.301ZM36.4204 22.8842C37.2157 23.3096 38.1071 23.5078 39.0674 23.5078V21.5078C38.387 21.5078 37.8283 21.3691 37.3637 21.1207L36.4204 22.8842ZM39.0674 23.5078C39.7124 23.5078 40.3652 23.4229 41.0238 23.2582L40.5387 21.3179C40.0254 21.4463 39.5357 21.5078 39.0674 21.5078V23.5078ZM41.0182 23.2596C41.7479 23.0816 42.4021 22.7706 42.9569 22.3114L41.6818 20.7706C41.387 21.0146 41.0158 21.2016 40.5443 21.3166L41.0182 23.2596ZM43.318 21.5922L43.4059 19.8784L41.4085 19.7759L41.3206 21.4898L43.318 21.5922ZM42.4239 18.8273L37.1505 18.7394L37.1171 20.7391L42.3906 20.827L42.4239 18.8273ZM38.133 19.7792L38.3967 13.1874L36.3983 13.1075L36.1346 19.6993L38.133 19.7792ZM37.431 14.1469C39.6091 14.0738 41.7873 14.0153 43.9654 13.9715L43.9252 11.9719C41.7381 12.0159 39.551 12.0746 37.3639 12.148L37.431 14.1469ZM43.9721 13.9713C46.1591 13.9126 48.3607 13.8392 50.5768 13.7512L50.4974 11.7527C48.2897 11.8405 46.0967 11.9136 43.9185 11.972L43.9721 13.9713ZM49.5373 12.7698L49.8009 27.5354L51.8006 27.4997L51.5369 12.7341L49.5373 12.7698Z" fill="#9500FF"/>
</g>
</svg>
